<?xml version="1.0" encoding="UTF-8"?>
<!DOCTYPE svg PUBLIC "-//W3C//DTD SVG 1.1//EN" "http://www.w3.org/Graphics/SVG/1.1/DTD/svg11.dtd">
<!-- Creator: CorelDRAW -->
<svg xmlns="http://www.w3.org/2000/svg" xml:space="preserve" width="70mm" height="100mm" style="shape-rendering:geometricPrecision; text-rendering:geometricPrecision; image-rendering:optimizeQuality; fill-rule:evenodd; clip-rule:evenodd"
viewBox="0 0 70 100"
 xmlns:xlink="http://www.w3.org/1999/xlink">
 <defs>
  <style type="text/css">
   <![CDATA[
    .str1 {stroke:#1F1A17;stroke-width:0.3528;stroke-linecap:round;stroke-linejoin:round}
    .str0 {stroke:black;stroke-width:0.3528}
    .fil2 {fill:none}
    .fil5 {fill:white}
    .fil6 {fill:#00885E}
    .fil3 {fill:#064186}
    .fil7 {fill:#DA242A}
    .fil4 {fill:#FFF500}
    .fil8 {fill:url(#id0)}
    .fil1 {fill:url(#id1)}
    .fil13 {fill:url(#id2)}
    .fil19 {fill:url(#id3)}
    .fil26 {fill:url(#id4)}
    .fil22 {fill:url(#id5)}
    .fil24 {fill:url(#id6)}
    .fil23 {fill:url(#id7)}
    .fil27 {fill:url(#id8)}
    .fil20 {fill:url(#id9)}
    .fil28 {fill:url(#id10)}
    .fil12 {fill:url(#id11)}
    .fil11 {fill:url(#id12)}
    .fil18 {fill:url(#id13)}
    .fil15 {fill:url(#id14)}
    .fil16 {fill:url(#id15)}
    .fil14 {fill:url(#id16)}
    .fil10 {fill:url(#id17)}
    .fil9 {fill:url(#id18)}
    .fil25 {fill:url(#id19)}
    .fil31 {fill:url(#id20)}
    .fil33 {fill:url(#id21)}
    .fil34 {fill:url(#id22)}
    .fil21 {fill:url(#id23)}
    .fil30 {fill:url(#id24)}
    .fil29 {fill:url(#id25)}
    .fil0 {fill:url(#id26)}
    .fil17 {fill:url(#id27)}
    .fil32 {fill:url(#id28)}
   ]]>
  </style>
  <linearGradient id="id0" gradientUnits="userSpaceOnUse" x1="27.0181" y1="27.131" x2="45.4604" y2="27.131">
   <stop offset="0" style="stop-color:#007CC3"/>
   <stop offset="0.478431" style="stop-color:#3AAEE0"/>
   <stop offset="1" style="stop-color:#007CC3"/>
  </linearGradient>
  <linearGradient id="id1" gradientUnits="userSpaceOnUse" x1="24.5178" y1="25.686" x2="48.0031" y2="25.686">
   <stop offset="0" style="stop-color:#EFE105"/>
   <stop offset="0.501961" style="stop-color:#F0DE00"/>
   <stop offset="1" style="stop-color:#EBE938"/>
  </linearGradient>
  <linearGradient id="id2" gradientUnits="userSpaceOnUse" x1="3.1842" y1="96.0595" x2="61.7582" y2="37.4855">
   <stop offset="0" style="stop-color:#FFF500"/>
   <stop offset="1" style="stop-color:#D5A320"/>
  </linearGradient>
  <radialGradient id="id3" gradientUnits="userSpaceOnUse" cx="18.194" cy="40.1775" r="5.3804" fx="18.194" fy="40.1775">
   <stop offset="0" style="stop-color:#F8C300"/>
   <stop offset="1" style="stop-color:#FFF500"/>
  </radialGradient>
  <radialGradient id="id4" gradientUnits="userSpaceOnUse" xlink:href="#id3" cx="36.4032" cy="66.3077" r="6.2895" fx="36.4032" fy="66.3077">
  </radialGradient>
  <radialGradient id="id5" gradientUnits="userSpaceOnUse" xlink:href="#id3" cx="55.8458" cy="89.4843" r="5.4756" fx="55.8458" fy="89.4843">
  </radialGradient>
  <radialGradient id="id6" gradientUnits="userSpaceOnUse" xlink:href="#id3" cx="32.2108" cy="60.4812" r="6.4026" fx="32.2108" fy="60.4812">
  </radialGradient>
  <radialGradient id="id7" gradientUnits="userSpaceOnUse" xlink:href="#id3" cx="33.8557" cy="62.6295" r="6.4026" fx="33.8557" fy="62.6295">
  </radialGradient>
  <radialGradient id="id8" gradientUnits="userSpaceOnUse" xlink:href="#id3" cx="44.8005" cy="75.902" r="13.3586" fx="44.8005" fy="75.902">
  </radialGradient>
  <radialGradient id="id9" gradientUnits="userSpaceOnUse" xlink:href="#id3" cx="53.6278" cy="86.2822" r="5.5742" fx="53.6278" fy="86.2822">
  </radialGradient>
  <radialGradient id="id10" gradientUnits="userSpaceOnUse" xlink:href="#id3" cx="27.1524" cy="74.8512" r="23.0636" fx="27.1524" fy="74.8512">
  </radialGradient>
  <radialGradient id="id11" gradientUnits="userSpaceOnUse" xlink:href="#id3" cx="34.367" cy="65.0936" r="31.8303" fx="34.367" fy="65.0936">
  </radialGradient>
  <radialGradient id="id12" gradientUnits="userSpaceOnUse" xlink:href="#id3" cx="36.2644" cy="63.5574" r="31.8303" fx="36.2644" fy="63.5574">
  </radialGradient>
  <radialGradient id="id13" gradientUnits="userSpaceOnUse" xlink:href="#id3" cx="17.2419" cy="38.6537" r="5.3798" fx="17.2419" fy="38.6537">
  </radialGradient>
  <radialGradient id="id14" gradientUnits="userSpaceOnUse" xlink:href="#id3" cx="12.4698" cy="53.4801" r="8.8967" fx="12.4698" fy="53.4801">
  </radialGradient>
  <radialGradient id="id15" gradientUnits="userSpaceOnUse" xlink:href="#id3" cx="25.5113" cy="50.4123" r="12.735" fx="25.5113" fy="50.4123">
  </radialGradient>
  <radialGradient id="id16" gradientUnits="userSpaceOnUse" xlink:href="#id3" cx="31.1061" cy="68.607" r="23.779" fx="31.1061" fy="68.607">
  </radialGradient>
  <radialGradient id="id17" gradientUnits="userSpaceOnUse" xlink:href="#id3" cx="38.1618" cy="62.0212" r="31.8303" fx="38.1618" fy="62.0212">
  </radialGradient>
  <radialGradient id="id18" gradientUnits="userSpaceOnUse" xlink:href="#id3" cx="40.0592" cy="60.485" r="31.8303" fx="40.0592" fy="60.485">
  </radialGradient>
  <radialGradient id="id19" gradientUnits="userSpaceOnUse" xlink:href="#id3" cx="35.2902" cy="64.5263" r="6.2887" fx="35.2902" fy="64.5263">
  </radialGradient>
  <radialGradient id="id20" gradientUnits="userSpaceOnUse" xlink:href="#id3" cx="64.9328" cy="31.1455" r="1.3696" fx="64.9328" fy="31.1455">
  </radialGradient>
  <radialGradient id="id21" gradientUnits="userSpaceOnUse" xlink:href="#id3" cx="43.9623" cy="41.7521" r="1.8872" fx="43.9623" fy="41.7521">
  </radialGradient>
  <radialGradient id="id22" gradientUnits="userSpaceOnUse" xlink:href="#id3" cx="47.6094" cy="51.015" r="2.8693" fx="47.6094" fy="51.015">
  </radialGradient>
  <radialGradient id="id23" gradientUnits="userSpaceOnUse" xlink:href="#id3" cx="54.8768" cy="87.9335" r="5.4749" fx="54.8768" fy="87.9335">
  </radialGradient>
  <radialGradient id="id24" gradientUnits="userSpaceOnUse" xlink:href="#id3" cx="57.644" cy="39.5931" r="7.2961" fx="57.644" fy="39.5931">
  </radialGradient>
  <radialGradient id="id25" gradientUnits="userSpaceOnUse" xlink:href="#id3" cx="50.6999" cy="47.8262" r="6.0032" fx="50.6999" fy="47.8262">
  </radialGradient>
  <radialGradient id="id26" gradientUnits="userSpaceOnUse" cx="36.2605" cy="19.0981" r="5.066" fx="36.2605" fy="19.0981">
   <stop offset="0" style="stop-color:#DA251D"/>
   <stop offset="1" style="stop-color:#8C2929"/>
  </radialGradient>
  <radialGradient id="id27" gradientUnits="userSpaceOnUse" xlink:href="#id3" cx="16.0146" cy="37.031" r="5.4772" fx="16.0146" fy="37.031">
  </radialGradient>
  <radialGradient id="id28" gradientUnits="userSpaceOnUse" xlink:href="#id3" cx="57.2493" cy="53.8202" r="1.8872" fx="57.2493" fy="53.8202">
  </radialGradient>
 </defs>
 <g id="Capa_x0020_1">
  <metadata id="CorelCorpID_0Corel-Layer"/>
  <g id="_49298856">
   <path id="_49630040" class="fil0 str0" d="M36.2605 13.9214c2.1064,0 6.3193,1.0309 7.664,1.8826 2.9581,-0.7174 6.8125,0.8513 8.1569,2.5096 -0.1343,1.9721 -1.479,2.1964 -2.1064,3.5855 -0.6274,1.3894 -2.1062,1.7929 -2.8235,2.3756 -1.3894,-0.3588 -7.7984,-1.2551 -10.891,-1.2551 -3.0924,0 -9.5017,0.8963 -10.8911,1.2551 -0.717,-0.5827 -2.196,-0.9862 -2.8234,-2.3756 -0.6274,-1.3891 -1.9722,-1.6134 -2.1065,-3.5855 1.3445,-1.6583 5.1988,-3.227 8.1569,-2.5096 1.3444,-0.8517 5.5576,-1.8826 7.6641,-1.8826z"/>
   <path id="_49628808" class="fil1 str0" d="M26.1202 26.7996c-0.0778,0.0806 -0.1177,0.1596 -0.1177,0.2436 0,0.8963 4.5829,1.6227 10.2367,1.6227 5.6535,0 10.2368,-0.7264 10.2368,-1.6227 0,-0.084 -0.0337,-0.163 -0.1112,-0.2436 -0.2354,-0.2914 0.0918,-1.539 0.3386,-2.1217 0.6498,0.1571 1.2997,-0.4482 0,-0.762 -1.8388,-0.4438 -6.8575,-1.2099 -10.4429,-1.2099 -3.5855,0 -8.6041,0.7661 -10.4426,1.2099 -1.3001,0.3138 -0.6499,0.9191 0,0.762 0.2464,0.5827 0.5375,1.8303 0.3023,2.1217z"/>
   <path id="_49628016" class="fil2 str0" d="M25.8179 24.6779c0.6945,-0.1568 2.7338,-0.6724 4.7953,-0.8738"/>
   <path id="_49627024" class="fil2 str0" d="M46.3648 26.7996c-0.7507,-0.7789 -5.002,-1.3794 -10.1256,-1.3794 -5.1238,0 -9.3682,0.6005 -10.119,1.3794"/>
   <path id="_49626096" class="fil2 str0" d="M46.7034 24.6779c-0.6946,-0.1568 -2.7342,-0.6724 -4.7957,-0.8738"/>
   <path id="_49625048" class="fil3 str0" d="M36.238 10.2885c0.8401,0 1.5212,-0.6811 1.5212,-1.5212 0,-0.8401 -0.6811,-1.5212 -1.5212,-1.5212 -0.8401,0 -1.5212,0.6811 -1.5212,1.5212 0,0.8401 0.6811,1.5212 1.5212,1.5212z"/>
   <path id="_49623928" class="fil4 str0" d="M36.574 4.7449l0 0.8067 0.7895 0 0 0.672 -0.7895 0 0 2.2748 1.2102 0c0.0337,0.168 0.0562,0.5378 -0.0334,0.6724l-3.0253 0c-0.0896,-0.1346 -0.0674,-0.5044 -0.0337,-0.6724l1.2102 0 0 -2.2748 -0.7892 0 0 -0.672 0.7892 0 0 -0.8067 0.672 0z"/>
   <path id="_49623136" class="fil4 str0" d="M27.924 12.4871c-2.5096,-1.2099 -5.6897,-0.3835 -7.2156,1.6136 -1.524,1.9943 -1.0759,4.2578 -0.2689,5.5127l0.5378 0.1121 0.7845 -1.3223c-1.4569,-1.5237 -1.0584,-3.7257 -0.0225,-4.616 1.1205,-0.9638 3.4287,-2.0618 5.9383,-0.7624l0.2464 -0.5377z"/>
   <path id="_49621800" class="fil4 str0" d="M44.5966 12.4871c2.5099,-1.2099 5.6901,-0.3835 7.2159,1.6136 1.524,1.9943 1.0756,4.2578 0.2689,5.5127l-0.5374 0.1121 -0.7845 -1.3223c1.4565,-1.5237 1.058,-3.7257 0.0221,-4.616 -1.1202,-0.9638 -3.4284,-2.0618 -5.9383,-0.7624l-0.2467 -0.5377z"/>
   <path id="_49620696" class="fil4 str0" d="M35.1849 11.1873c-2.0168,-1.4341 -5.1092,-1.2099 -6.8124,0.5381 -1.8185,1.8663 -0.5828,4.0336 0.2689,4.706l-0.5603 0.8291 0.381 0.4035c0.2239,-0.2917 0.8738,-1.2101 0.8738,-1.2101 -1.4565,-1.3895 -1.6805,-3.4962 -0.2017,-4.5718 1.7148,-1.247 4.1011,-1.479 6.0732,0.1122l-0.0225 -0.807z"/>
   <path id="_49619312" class="fil4 str0" d="M37.336 11.1873c2.0171,-1.4341 5.1095,-1.2099 6.8125,0.5381 1.8185,1.8663 0.5827,4.0336 -0.2686,4.706l0.5599 0.8291 -0.381 0.4035c-0.2239,-0.2917 -0.8738,-1.2101 -0.8738,-1.2101 1.4566,-1.3895 1.6808,-3.4962 0.2018,-4.5718 -1.7152,-1.247 -4.1011,-1.479 -6.073,0.1122l0.0222 -0.807z"/>
   <path id="_49618488" class="fil4 str0" d="M36.2605 17.7533l2.1064 -1.86c-0.762,-0.8067 -0.9188,-2.2183 -0.9188,-3.3834 0,-1.1655 0,-2.2861 -1.1876,-2.2861 -1.1877,0 -1.1877,1.1206 -1.1877,2.2861 0,1.1651 -0.1571,2.5767 -0.9188,3.3834l2.1065 1.86z"/>
   <path id="_49617696" class="fil4 str0" d="M36.2605 17.1259l1.2513 -1.5327c-0.4525,-0.6649 -0.5459,-1.8282 -0.5459,-2.7885 0,-0.9607 0,-1.8838 -0.7054,-1.8838 -0.7055,0 -0.7055,0.9231 -0.7055,1.8838 0,0.9603 -0.0934,2.1236 -0.5459,2.7885l1.2514 1.5327z"/>
   <path id="_49616720" class="fil5 str0" d="M36.238 16.1175c-0.6796,0 -0.6796,-1.0128 0,-1.0128 0.6895,0 0.6799,1.0128 0,1.0128z"/>
   <path id="_49611688" class="fil5 str0" d="M36.238 15.0288c-0.6521,0 -0.6521,-0.9718 0,-0.9718 0.6614,0 0.6521,0.9718 0,0.9718z"/>
   <path id="_49611480" class="fil5 str0" d="M36.238 13.9399c-0.6243,0 -0.6243,-0.9307 0,-0.9307 0.6333,0 0.6246,0.9307 0,0.9307z"/>
   <path id="_49613152" class="fil5 str0" d="M36.238 12.8509c-0.5968,0 -0.5968,-0.8894 0,-0.8894 0.6052,0 0.5968,0.8894 0,0.8894z"/>
   <path id="_49614816" class="fil5 str0" d="M36.238 11.874c-0.569,0 -0.569,-0.8479 0,-0.8479 0.5771,0 0.5693,0.8479 0,0.8479z"/>
   <path id="_49610328" class="fil4 str0" d="M36.2605 21.8097c0.9859,1.4341 3.003,1.0981 3.5854,0.1793 0.4035,1.2548 2.3979,1.5908 3.4959,0.4257 0.8067,1.1651 2.1068,1.6133 3.1598,0.8291 0.5153,1.4119 2.6892,0.6499 3.7648,-1.1877 1.0755,-1.8375 1.7254,-1.6807 2.241,-1.1879 0.5378,-2.0615 -1.8825,-1.703 -2.6221,-0.0447l-1.2548 -0.8513 -0.1121 0.5378 -1.0534 0 0.6278 0.8513 -0.2689 0.6277 1.5462 0.2239c-1.1652,1.4119 -2.3307,1.0534 -2.6446,-0.3138 -0.2464,0.6277 -1.3669,1.0983 -1.9268,0.8966 -0.7171,-0.258 -1.3254,-1.1321 -0.8211,-2.0247l1.6483 1.3573 0.0803 -0.9244 1.0674 -0.1199 -0.8847 -0.609 0.3648 -0.8532 -2.0934 0.4203 1.5106 -1.7179 -0.8032 -0.1577 -0.3604 -1.0631 -0.8189 0.7677 -0.7829 -0.2393 0.5225 2.227 -1.648 -1.3572 -0.0803 0.9244 -1.0671 0.1202 0.8848 0.609 -0.3648 0.8529 2.0933 -0.4201c0.0241,1.0247 -1.029,1.7964 -1.7863,1.7145 -0.5799,-0.0624 -1.4119,-0.8738 -1.6361,-1.7254 -0.2018,0.6274 -1.0081,1.3444 -1.8151,1.2326 -0.8067,-0.1121 -1.6133,-1.0087 -1.3223,-2.0652l2.0618 0.9794 -0.1571 -0.9794 1.0759 -0.4016 -1.0759 -0.4019 0.1571 -0.9791 -2.0618 0.9791 1.1206 -2.1736 -0.8739 0.045 -0.6723 -1.0084 -0.6724 1.0084 -0.8738 -0.045 1.1205 2.1736 -2.0618 -0.9791 0.1568 0.9791 -1.0755 0.4019 1.0755 0.4016 -0.1568 0.9794 2.0618 -0.9794c0.2911,1.0565 -0.5156,1.9531 -1.3223,2.0652 -0.8066,0.1118 -1.6133,-0.6052 -1.815,-1.2326 -0.2243,0.8516 -1.0565,1.663 -1.6358,1.7254 -0.758,0.0819 -1.8107,-0.6898 -1.7864,-1.7145l2.0934 0.4201 -0.3651 -0.8529 0.8847 -0.609 -1.0671 -0.1202 -0.0803 -0.9244 -1.6483 1.3572 0.5228 -2.227 -0.7829 0.2393 -0.8188 -0.7677 -0.3604 1.0631 -0.8033 0.1577 1.5106 1.7179 -2.0933 -0.4203 0.3648 0.8532 -0.8848 0.609 1.0674 0.1199 0.0803 0.9244 1.6483 -1.3573c0.5044,0.8926 -0.104,1.7667 -0.8207,2.0247 -0.5603,0.2017 -1.6808,-0.2689 -1.9272,-0.8966 -0.3138,1.3672 -1.479,1.7257 -2.6445,0.3138l1.5465 -0.2239 -0.2692 -0.6277 0.6277 -0.8513 -1.0534 0 -0.1121 -0.5378 -1.2548 0.8513c-0.7395,-1.6583 -3.1598,-2.0168 -2.622,0.0447 0.5156,-0.4928 1.1654,-0.6496 2.241,1.1879 1.0755,1.8376 3.2494,2.5996 3.7647,1.1877 1.0534,0.7842 2.3532,0.336 3.1598,-0.8291 1.0981,1.1651 3.0924,0.8291 3.4959,-0.4257 0.5827,0.9188 2.5996,1.2548 3.5855,-0.1793z"/>
   <path id="_49609336" class="fil6 str0" d="M30.8374 24.3418c-1.4937,0.1409 -1.4359,0.7527 0.0575,0.6121 1.4934,-0.1405 1.4572,-0.7548 -0.0575,-0.6121z"/>
   <path id="_49608344" class="fil6 str0" d="M41.6835 24.3418c1.4934,0.1409 1.4356,0.7527 -0.0578,0.6121 -1.4934,-0.1405 -1.4568,-0.7548 0.0578,-0.6121z"/>
   <path id="_49607352" class="fil7 str0" d="M28.8206 19.6137c-0.9472,0 -0.9472,1.4116 0,1.4116 0.9472,0 0.9607,-1.4116 0,-1.4116z"/>
   <path id="_49606328" class="fil7 str0" d="M36.283 18.6277c-0.9472,0 -0.9472,1.4116 0,1.4116 0.9472,0 0.9606,-1.4116 0,-1.4116z"/>
   <path id="_49605336" class="fil7 str0" d="M21.9076 21.4072c-0.4725,0.2842 0.2555,1.4934 0.728,1.2092 0.4722,-0.2845 -0.2489,-1.4978 -0.728,-1.2092z"/>
   <path id="_49604208" class="fil7 str0" d="M43.7003 19.6137c0.9472,0 0.9472,1.4116 0,1.4116 -0.9472,0 -0.9606,-1.4116 0,-1.4116z"/>
   <path id="_49603216" class="fil7 str0" d="M50.6133 21.4072c0.4725,0.2842 -0.2558,1.4934 -0.728,1.2092 -0.4721,-0.2845 0.2489,-1.4978 0.728,-1.2092z"/>
   <path id="_49602096" class="fil7 str0" d="M37.4144 24.7228c0.1458,0 0.213,-0.0505 0.213,-0.1905l0 -0.4147c0,-0.1399 -0.0672,-0.1905 -0.213,-0.1905l-2.3528 0c-0.1459,0 -0.213,0.0506 -0.213,0.1905l0 0.4147c0,0.14 0.0671,0.1905 0.213,0.1905l2.3528 0z"/>
   <polygon id="_49601120" class="fil7 str0" points="25.3885,25.7837 26.1667,25.9861 26.8073,25.4995 26.0287,25.2972 "/>
   <polygon id="_49599792" class="fil7 str0" points="47.1325,25.7837 46.3539,25.9861 45.7137,25.4995 46.4922,25.2972 "/>
   <path id="_49598800" class="fil5 str0" d="M27.9019 11.192c-0.5687,0 -0.5687,0.8469 0,0.8469 0.5683,0 0.5765,-0.8469 0,-0.8469z"/>
   <path id="_49597808" class="fil5 str0" d="M28.7085 10.4524c-0.5684,0 -0.5684,0.8473 0,0.8473 0.5684,0 0.5765,-0.8473 0,-0.8473z"/>
   <path id="_49596816" class="fil5 str0" d="M29.6723 9.9144c-0.5687,0 -0.5687,0.8472 0,0.8472 0.5683,0 0.5765,-0.8472 0,-0.8472z"/>
   <path id="_49595824" class="fil5 str0" d="M30.7925 9.5562c-0.5684,0 -0.5684,0.8469 0,0.8469 0.5687,0 0.5765,-0.8469 0,-0.8469z"/>
   <path id="_49594832" class="fil5 str0" d="M31.8683 9.3991c-0.5687,0 -0.5687,0.8472 0,0.8472 0.5684,0 0.5765,-0.8472 0,-0.8472z"/>
   <path id="_49593696" class="fil5 str0" d="M32.9664 9.444c-0.5687,0 -0.5687,0.847 0,0.847 0.5683,0 0.5765,-0.847 0,-0.847z"/>
   <path id="_49592704" class="fil5 str0" d="M33.9523 9.6904c-0.5687,0 -0.5687,0.847 0,0.847 0.5684,0 0.5768,-0.847 0,-0.847z"/>
   <path id="_49591712" class="fil5 str0" d="M34.8932 10.0714c-0.568,0 -0.568,0.8473 0,0.8473 0.5687,0 0.5768,-0.8473 0,-0.8473z"/>
   <path id="_49590720" class="fil5 str0" d="M27.3416 12.1104c-0.5687,0 -0.5687,0.8473 0,0.8473 0.5684,0 0.5765,-0.8473 0,-0.8473z"/>
   <path id="_49589720" class="fil5 str0" d="M27.0052 13.1638c-0.5683,0 -0.5683,0.8473 0,0.8473 0.5687,0 0.5765,-0.8473 0,-0.8473z"/>
   <path id="_49588728" class="fil5 str0" d="M27.0949 14.2397c-0.5684,0 -0.5684,0.8469 0,0.8469 0.5687,0 0.5768,-0.8469 0,-0.8469z"/>
   <path id="_49587736" class="fil5 str0" d="M27.4984 15.2256c-0.5684,0 -0.5684,0.8469 0,0.8469 0.5683,0 0.5765,-0.8469 0,-0.8469z"/>
   <path id="_49586744" class="fil5 str0" d="M28.0811 16.0772c-0.5684,0 -0.5684,0.8473 0,0.8473 0.5684,0 0.5765,-0.8473 0,-0.8473z"/>
   <path id="_49585720" class="fil5 str0" d="M26.7588 11.2145c-0.5686,0 -0.5686,0.8469 0,0.8469 0.5684,0 0.5765,-0.8469 0,-0.8469z"/>
   <path id="_49584728" class="fil5 str0" d="M25.7055 11.0799c-0.5684,0 -0.5684,0.8472 0,0.8472 0.5687,0 0.5768,-0.8472 0,-0.8472z"/>
   <path id="_49583600" class="fil5 str0" d="M24.6524 11.1245c-0.5684,0 -0.5684,0.8473 0,0.8473 0.5687,0 0.5765,-0.8473 0,-0.8473z"/>
   <path id="_49582608" class="fil5 str0" d="M23.5319 11.3487c-0.5687,0 -0.5687,0.8473 0,0.8473 0.5687,0 0.5768,-0.8473 0,-0.8473z"/>
   <path id="_49581584" class="fil5 str0" d="M22.501 11.7522c-0.5687,0 -0.5687,0.847 0,0.847 0.5687,0 0.5768,-0.847 0,-0.847z"/>
   <path id="_49580592" class="fil5 str0" d="M21.5376 12.3125c-0.5687,0 -0.5687,0.8469 0,0.8469 0.5683,0 0.5765,-0.8469 0,-0.8469z"/>
   <path id="_49579600" class="fil5 str0" d="M20.7084 13.0295c-0.5684,0 -0.5684,0.847 0,0.847 0.5684,0 0.5765,-0.847 0,-0.847z"/>
   <path id="_49578608" class="fil5 str0" d="M20.0136 13.9033c-0.5684,0 -0.5684,0.8473 0,0.8473 0.5686,0 0.5764,-0.8473 0,-0.8473z"/>
   <path id="_49577584" class="fil5 str0" d="M19.5654 14.8896c-0.5684,0 -0.5684,0.8469 0,0.8469 0.5687,0 0.5765,-0.8469 0,-0.8469z"/>
   <path id="_49576592" class="fil5 str0" d="M19.319 15.9426c-0.5687,0 -0.5687,0.8473 0,0.8473 0.5684,0 0.5765,-0.8473 0,-0.8473z"/>
   <path id="_49575600" class="fil5 str0" d="M19.2965 17.0631c-0.5687,0 -0.5687,0.8473 0,0.8473 0.5684,0 0.5765,-0.8473 0,-0.8473z"/>
   <path id="_49574608" class="fil5 str0" d="M19.4983 18.094c-0.5687,0 -0.5687,0.847 0,0.847 0.5683,0 0.5765,-0.847 0,-0.847z"/>
   <path id="_49573448" class="fil5 str0" d="M19.8568 18.9903c-0.5684,0 -0.5684,0.847 0,0.847 0.5687,0 0.5765,-0.847 0,-0.847z"/>
   <path id="_49572456" class="fil5 str0" d="M44.6191 11.192c0.5687,0 0.5687,0.8469 0,0.8469 -0.5684,0 -0.5765,-0.8469 0,-0.8469z"/>
   <path id="_49571464" class="fil5 str0" d="M43.8124 10.4524c0.5684,0 0.5684,0.8473 0,0.8473 -0.5687,0 -0.5765,-0.8473 0,-0.8473z"/>
   <path id="_49377256" class="fil5 str0" d="M42.849 9.9144c0.5684,0 0.5684,0.8472 0,0.8472 -0.5687,0 -0.5768,-0.8472 0,-0.8472z"/>
   <path id="_49376928" class="fil5 str0" d="M41.7285 9.5562c0.5684,0 0.5684,0.8469 0,0.8469 -0.5687,0 -0.5768,-0.8469 0,-0.8469z"/>
   <path id="_49375936" class="fil5 str0" d="M40.6526 9.3991c0.5687,0 0.5687,0.8472 0,0.8472 -0.5684,0 -0.5765,-0.8472 0,-0.8472z"/>
   <path id="_49374944" class="fil5 str0" d="M39.5546 9.444c0.5687,0 0.5687,0.847 0,0.847 -0.5687,0 -0.5765,-0.847 0,-0.847z"/>
   <path id="_49373952" class="fil5 str0" d="M38.5687 9.6904c0.5683,0 0.5683,0.847 0,0.847 -0.5687,0 -0.5769,-0.847 0,-0.847z"/>
   <path id="_49372960" class="fil5 str0" d="M37.6274 10.0714c0.5687,0 0.5687,0.8473 0,0.8473 -0.5684,0 -0.5765,-0.8473 0,-0.8473z"/>
   <path id="_49371968" class="fil5 str0" d="M45.1794 12.1104c0.5686,0 0.5686,0.8473 0,0.8473 -0.5684,0 -0.5765,-0.8473 0,-0.8473z"/>
   <path id="_49370840" class="fil5 str0" d="M45.5157 13.1638c0.5684,0 0.5684,0.8473 0,0.8473 -0.5687,0 -0.5768,-0.8473 0,-0.8473z"/>
   <path id="_49369848" class="fil5 str0" d="M45.4261 14.2397c0.5683,0 0.5683,0.8469 0,0.8469 -0.5687,0 -0.5768,-0.8469 0,-0.8469z"/>
   <path id="_49368824" class="fil5 str0" d="M45.0226 15.2256c0.5687,0 0.5687,0.8469 0,0.8469 -0.5687,0 -0.5768,-0.8469 0,-0.8469z"/>
   <path id="_49367832" class="fil5 str0" d="M44.4398 16.0772c0.5687,0 0.5687,0.8473 0,0.8473 -0.5683,0 -0.5765,-0.8473 0,-0.8473z"/>
   <path id="_49366840" class="fil5 str0" d="M45.7621 11.2145c0.5684,0 0.5684,0.8469 0,0.8469 -0.5687,0 -0.5765,-0.8469 0,-0.8469z"/>
   <path id="_49365848" class="fil5 str0" d="M46.8155 11.0799c0.5684,0 0.5684,0.8472 0,0.8472 -0.5687,0 -0.5768,-0.8472 0,-0.8472z"/>
   <path id="_49364824" class="fil5 str0" d="M47.8688 11.1245c0.5684,0 0.5684,0.8473 0,0.8473 -0.5686,0 -0.5768,-0.8473 0,-0.8473z"/>
   <path id="_49362984" class="fil5 str0" d="M48.9891 11.3487c0.5683,0 0.5683,0.8473 0,0.8473 -0.5687,0 -0.5765,-0.8473 0,-0.8473z"/>
   <path id="_49362776" class="fil5 str0" d="M50.0199 11.7522c0.5684,0 0.5684,0.847 0,0.847 -0.5686,0 -0.5768,-0.847 0,-0.847z"/>
   <path id="_49361736" class="fil5 str0" d="M50.9837 12.3125c0.5684,0 0.5684,0.8469 0,0.8469 -0.5687,0 -0.5768,-0.8469 0,-0.8469z"/>
   <path id="_49360576" class="fil5 str0" d="M51.8125 13.0295c0.5687,0 0.5687,0.847 0,0.847 -0.5683,0 -0.5765,-0.847 0,-0.847z"/>
   <path id="_49359584" class="fil5 str0" d="M52.5074 13.9033c0.5684,0 0.5684,0.8473 0,0.8473 -0.5687,0 -0.5768,-0.8473 0,-0.8473z"/>
   <path id="_49358592" class="fil5 str0" d="M52.9555 14.8896c0.5684,0 0.5684,0.8469 0,0.8469 -0.5687,0 -0.5768,-0.8469 0,-0.8469z"/>
   <path id="_49357600" class="fil5 str0" d="M53.2019 15.9426c0.5684,0 0.5684,0.8473 0,0.8473 -0.5687,0 -0.5765,-0.8473 0,-0.8473z"/>
   <path id="_49356576" class="fil5 str0" d="M53.2244 17.0631c0.5684,0 0.5684,0.8473 0,0.8473 -0.5684,0 -0.5765,-0.8473 0,-0.8473z"/>
   <path id="_49355584" class="fil5 str0" d="M53.0227 18.094c0.5687,0 0.5687,0.847 0,0.847 -0.5684,0 -0.5765,-0.847 0,-0.847z"/>
   <path id="_49354592" class="fil5 str0" d="M52.6642 18.9903c0.5683,0 0.5683,0.847 0,0.847 -0.5684,0 -0.5765,-0.847 0,-0.847z"/>
   <path id="_49353600" class="fil5 str0" d="M25.8179 21.45c-0.5874,0 -0.5874,0.875 0,0.875 0.5871,0 0.5952,-0.875 0,-0.875z"/>
   <path id="_49352608" class="fil5 str0" d="M32.675 20.0831c-0.5871,0 -0.5871,0.875 0,0.875 0.5871,0 0.5955,-0.875 0,-0.875z"/>
   <path id="_49351616" class="fil5 str0" d="M46.7034 21.45c0.5871,0 0.5871,0.875 0,0.875 -0.5872,0 -0.5959,-0.875 0,-0.875z"/>
   <path id="_49350488" class="fil5 str0" d="M39.8459 20.0831c0.5875,0 0.5875,0.875 0,0.875 -0.5871,0 -0.5955,-0.875 0,-0.875z"/>
   <path id="_49349496" class="fil5 str0" d="M33.5488 23.8703c-0.5871,0 -0.5871,0.875 0,0.875 0.5871,0 0.5959,-0.875 0,-0.875z"/>
   <path id="_49348504" class="fil5 str0" d="M28.1483 24.6095c-0.5872,0 -0.5872,0.8753 0,0.8753 0.5871,0 0.5955,-0.8753 0,-0.8753z"/>
   <path id="_49347512" class="fil5 str0" d="M38.9718 23.8703c0.5875,0 0.5875,0.875 0,0.875 -0.5871,0 -0.5952,-0.875 0,-0.875z"/>
   <path id="_49346248" class="fil5 str0" d="M44.3727 24.6095c0.5871,0 0.5871,0.8753 0,0.8753 -0.5871,0 -0.5956,-0.8753 0,-0.8753z"/>
   <path id="_49345456" class="fil8 str0" d="M36.2392 28.258c5.0923,0 9.2212,-0.5046 9.2212,-1.1274 0,-0.6224 -4.1289,-1.127 -9.2212,-1.127 -5.0926,0 -9.2211,0.5046 -9.2211,1.127 0,0.6228 4.1285,1.1274 9.2211,1.1274z"/>
   <path id="_49344664" class="fil2 str0" d="M20.7084 14.1007c-0.4484,0.5603 -0.8516,2.9131 0.2914,4.0786"/>
   <line id="_49343872" class="fil2 str0" x1="20.9998" y1="18.1793" x2="20.4395" y2= "19.6134" />
   <path id="_49343080" class="fil2 str0" d="M51.8125 14.1007c0.4485,0.5603 0.8517,2.9131 -0.291,4.0786"/>
   <line id="_49342144" class="fil2 str0" x1="51.5215" y1="18.1793" x2="52.0814" y2= "19.6134" />
   <path id="_49340856" class="fil9 str1" d="M15.4309 30.3442c-0.2615,-0.8533 0.7414,-1.8871 1.7443,-1.6567 15.8398,20.6236 31.6796,41.2473 47.5195,61.871 0.2575,1.0597 -0.9897,2.2398 -2.1164,1.5537 -15.7158,-20.5894 -31.4316,-41.1787 -47.1474,-61.768z"/>
   <path id="_49339704" class="fil10 str1" d="M13.5335 31.8804c-0.2615,-0.8533 0.7414,-1.8871 1.7443,-1.6567 15.8398,20.6236 31.6796,41.2473 47.5195,61.871 0.2575,1.0597 -0.9897,2.2398 -2.1164,1.5537 -15.7158,-20.5894 -31.4316,-41.1787 -47.1474,-61.768z"/>
   <path id="_49338552" class="fil11 str1" d="M11.6361 33.4166c-0.2615,-0.8533 0.7414,-1.8871 1.7443,-1.6567 15.8398,20.6236 31.6796,41.2473 47.5195,61.871 0.2575,1.0597 -0.9897,2.2398 -2.1164,1.5537 -15.7158,-20.5894 -31.4316,-41.1787 -47.1474,-61.768z"/>
   <path id="_49337760" class="fil12 str1" d="M9.7387 34.9528c-0.2615,-0.8533 0.7414,-1.8871 1.7443,-1.6567 15.8398,20.6236 31.6796,41.2473 47.5195,61.871 0.2575,1.0597 -0.9897,2.2398 -2.1164,1.5537 -15.7158,-20.5894 -31.4316,-41.1787 -47.1474,-61.768z"/>
   <path id="_49336968" class="fil13 str1" d="M7.8413 36.489c-0.2615,-0.8533 0.7414,-1.8871 1.7443,-1.6567 15.8398,20.6236 31.6796,41.2473 47.5195,61.871 0.2575,1.0597 -0.9897,2.2398 -2.1164,1.5537 -15.7158,-20.5894 -31.4316,-41.1787 -47.1474,-61.768z"/>
   <path id="_49335424" class="fil14 str1" d="M20.6882 53.3199c-2.1606,-2.8306 -4.3212,-5.6613 -6.4818,-8.4919 -1.3967,0.0425 -1.7222,1.0436 -1.1623,2.3201l33.5688 43.089c0.0835,0.9459 0.1293,1.4633 0.1294,1.4633 0.9956,1.3643 1.8505,0.4721 2.6855,-0.7424l-28.7396 -37.6381z"/>
   <path id="_49334272" class="fil15 str1" d="M19.9509 58.4294c-2.8307,-0.6147 -3.4893,-3.4716 -2.5814,-5.7292 -1.0238,-1.3142 -2.0476,-2.6284 -3.0715,-3.9426 -2.0086,0.7457 -4.1677,-0.1641 -4.6714,-4.1742 -4.638,4.4919 -0.8686,17.7934 10.3243,13.846z"/>
   <line id="_49333224" class="fil2 str1" x1="9.9659" y1="94.7232" x2="45.5617" y2= "53.5867" />
   <path id="_49332072" class="fil16 str1" d="M36.0867 53.3108c-7.4606,-2.8262 -14.9213,-5.6522 -22.3819,-8.4785 -1.2801,0.7627 -1.0554,1.9468 -0.4093,2.6492 7.5103,2.7694 15.0206,5.5388 22.5308,8.3082 3.6988,0.9195 2.6418,-1.5322 0.2604,-2.4789z"/>
   <path id="_49330920" class="fil17 str1" d="M11.8876 41.6255c-0.7657,0.012 -1.4704,-0.4659 -1.3331,-1.7783 3.1699,-2.5313 6.3399,-5.0626 9.51,-7.5939 1.0006,-0.0862 1.6871,1.112 1.3332,1.7783 -3.134,2.5754 -6.3761,5.0186 -9.5101,7.5939z"/>
   <path id="_49329632" class="fil18 str1" d="M12.9412 43.281c-0.7658,0.012 -1.1908,-0.3431 -1.0535,-1.6555 3.1699,-2.5313 6.3399,-5.0626 9.51,-7.5939 1.0006,-0.0862 1.4594,0.7911 1.1054,1.4574 -3.134,2.5754 -6.428,5.2167 -9.5619,7.792z"/>
   <path id="_49328480" class="fil19 str1" d="M14.1547 44.8705c-0.7658,0.012 -1.3508,-0.2771 -1.2135,-1.5895 3.1699,-2.5313 6.3918,-5.2607 9.5619,-7.792 1.0006,-0.0861 1.4075,0.9892 1.0535,1.6555 -3.134,2.5754 -6.268,5.1507 -9.4019,7.726z"/>
   <path id="_49327328" class="fil20 str1" d="M49.4279 90.958c-0.7793,0.0122 -1.4965,-0.4741 -1.3568,-1.8098 3.2261,-2.5761 6.4521,-5.1521 9.6783,-7.7282 1.0183,-0.0877 1.717,1.1316 1.3568,1.8098 -3.1895,2.6209 -6.4889,5.1073 -9.6783,7.7282z"/>
   <path id="_49326176" class="fil21 str1" d="M50.5001 92.6428c-0.7794,0.0122 -1.2119,-0.3492 -1.0722,-1.6849 3.2261,-2.576 6.4521,-5.1521 9.6783,-7.7282 1.0183,-0.0877 1.4852,0.8051 1.1249,1.4832 -3.1894,2.621 -6.5417,5.309 -9.731,7.9299z"/>
   <path id="_49325024" class="fil22 str1" d="M51.735 94.2604c-0.7793,0.0122 -1.3746,-0.282 -1.235,-1.6177 3.2261,-2.576 6.5049,-5.3537 9.7311,-7.9298 1.0184,-0.0876 1.4324,1.0067 1.0721,1.6848 -3.1894,2.621 -6.3788,5.2419 -9.5682,7.8627z"/>
   <path id="_49323840" class="fil23 str1" d="M29.0314 68.0003c-0.8951,0.014 -1.7188,-0.5446 -1.5584,-2.0788 3.7056,-2.959 7.4111,-5.9179 11.1169,-8.8769 1.1696,-0.1007 1.9721,1.2999 1.5584,2.0788 -3.6636,3.0105 -7.4534,5.8665 -11.1169,8.8769z"/>
   <path id="_49322688" class="fil24 str1" d="M27.3865 65.852c-0.8951,0.014 -1.7188,-0.5446 -1.5584,-2.0788 3.7056,-2.959 7.4111,-5.9179 11.1169,-8.8769 1.1696,-0.1007 1.9721,1.2999 1.5584,2.0788 -3.6636,3.0105 -7.4534,5.8665 -11.1169,8.8769z"/>
   <path id="_49321536" class="fil25 str1" d="M30.263 69.9355c-0.8952,0.0141 -1.392,-0.401 -1.2315,-1.9352 3.7055,-2.959 7.4111,-5.9179 11.1168,-8.8769 1.1696,-0.1008 1.7059,0.9247 1.2921,1.7036 -3.6635,3.0106 -7.514,6.0981 -11.1774,9.1085z"/>
   <path id="_49320744" class="fil26 str1" d="M31.6815 71.7936c-0.8951,0.014 -1.579,-0.3239 -1.4185,-1.8581 3.7055,-2.959 7.4717,-6.1495 11.1774,-9.1085 1.1697,-0.1007 1.6453,1.1563 1.2315,1.9352 -3.6635,3.0106 -7.327,6.021 -10.9904,9.0314z"/>
   <path id="_49318840" class="fil27 str1" d="M31.442 72.39l0.2395 -0.5963 2.0355 -1.6728c7.2997,2.7829 14.6814,5.9411 21.9811,8.724 3.3174,0.9909 2.4809,2.1022 2.0057,2.6114l-26.2618 -9.0663z"/>
   <line id="_49317656" class="fil2 str1" x1="30.4548" y1="71.2889" x2="11.1847" y2= "93.3146" />
   <polygon id="_49316568" class="fil28 str1" points="47.3119,53.8843 44.7535,51.7877 8.549,93.7326 6.9929,97.9148 11.5962,95.3686 "/>
   <line id="_49311200" class="fil2 str1" x1="45.5616" y1="53.5868" x2="10.7695" y2= "93.7946" />
   <path id="_49310408" class="fil29 str1" d="M55.6802 53.5659c-5.4534,-2.3264 -8.3135,-5.5494 -11.3656,-9.7649 0.4455,-0.5715 0.8911,-1.143 1.3368,-1.7146 5.4761,1.8972 8.583,5.8113 11.4338,9.9174 -0.4683,0.5208 -0.9366,1.0414 -1.405,1.5621z"/>
   <path id="_49308784" class="fil30 str1" d="M64.2541 33.3669c-0.4461,-0.3566 -0.8922,-0.7132 -1.3382,-1.0699 -6.9702,3.285 -9.7142,8.3311 -11.8819,12.4486 0.7178,0.7145 1.4358,1.429 2.1537,2.1436 4.169,-3.1949 8.7862,-7.9905 11.0664,-13.5223z"/>
   <circle id="_49307808" class="fil31 str1" cx="64.9328" cy="31.1455" r="2.32203"/>
   <line id="_49306760" class="fil2 str1" x1="57.7236" y1="35.6235" x2="63.2934" y2= "35.408" />
   <line id="_49305712" class="fil2 str1" x1="55.1687" y1="38.2156" x2="61.6137" y2= "38.1708" />
   <line id="_49304664" class="fil2 str1" x1="53.2834" y1="40.7928" x2="59.5838" y2= "40.8225" />
   <line id="_49303616" class="fil2 str1" x1="51.7516" y1="43.3999" x2="56.9862" y2= "43.6045" />
   <line id="_49302192" class="fil2 str1" x1="51.9066" y1="45.6145" x2="54.5235" y2= "45.822" />
   <path id="_49301400" class="fil32 str1" d="M58.4649 52.1727c0.6885,0.5079 0.7024,1.6578 0.0314,2.5673 -0.6713,0.9099 -1.774,1.2359 -2.4625,0.7279 -0.6886,-0.5079 -0.7025,-1.6578 -0.0312,-2.5676 0.671,-0.9096 1.7738,-1.2356 2.4623,-0.7276z"/>
   <path id="_49300256" class="fil33 str1" d="M45.1778 40.1045c0.6886,0.5079 0.7025,1.6578 0.0315,2.5673 -0.6713,0.9099 -1.774,1.2359 -2.4626,0.7279 -0.6885,-0.5079 -0.7024,-1.6578 -0.0312,-2.5676 0.6711,-0.9096 1.7738,-1.2356 2.4623,-0.7276z"/>
   <polygon id="_49299056" class="fil34 str1" points="47.3119,53.8843 50.4653,50.5263 47.8383,48.1457 44.7535,51.7877 45.5616,53.5868 "/>
  </g>
 </g>
</svg>
